<svg aria-hidden="true" style="position: absolute; width: 0; height: 0; overflow: hidden;" version="1.1" xmlns="http://www.w3.org/2000/svg" xmlns:xlink="http://www.w3.org/1999/xlink">
<defs>
<symbol id="icon-feather" viewBox="0 0 20 20">
<path d="M4.254 19.567c0.307-0.982 0.77-2.364 1.391-4.362 2.707-0.429 3.827 0.341 5.546-2.729-1.395 0.427-3.077-0.792-2.987-1.321s3.913 0.381 6.416-3.173c-3.155 0.696-4.164-0.836-3.757-1.067 0.939-0.534 3.726-0.222 5.212-1.669 0.766-0.745 1.125-2.556 0.813-3.202-0.374-0.781-2.656-1.946-3.914-1.836s-3.231 4.79-3.817 4.754c-0.584-0.037-0.703-2.098 0.319-4.013-1.077 0.477-3.051 1.959-3.67 3.226-1.153 2.357 0.108 7.766-0.296 7.958s-1.766-2.481-2.172-3.694c-0.555 1.859-0.568 3.721 1.053 6.194-0.611 1.623-0.945 3.491-0.996 4.441-0.024 0.759 0.724 0.922 0.859 0.493z"></path>
</symbol>
<symbol id="icon-gauge" viewBox="0 0 20 20">
<path d="M8.127 13.6c-0.689 1.197-0.225 2.18 0.732 2.732 0.956 0.553 2.041 0.465 2.732-0.732 0.689-1.195 5.047-11.865 4.668-12.084s-7.442 8.888-8.132 10.084zM10 6c0.438 0 0.864 0.037 1.281 0.109 0.438-0.549 0.928-1.154 1.405-1.728-0.852-0.246-1.752-0.381-2.686-0.381-5.607 0-10 4.729-10 10.766 0 0.371 0.016 0.742 0.049 1.103 0.049 0.551 0.54 0.955 1.084 0.908 0.551-0.051 0.957-0.535 0.908-1.086-0.027-0.302-0.041-0.615-0.041-0.925 0-4.916 3.514-8.766 8-8.766zM17.219 7.25c-0.279 0.75-0.574 1.514-0.834 2.174 1.015 1.47 1.615 3.314 1.615 5.342 0 0.316-0.015 0.635-0.043 0.943-0.050 0.551 0.355 1.037 0.905 1.088 0.030 0.002 0.061 0.004 0.092 0.004 0.511 0 0.948-0.391 0.995-0.91 0.033-0.37 0.051-0.748 0.051-1.125 0-2.954-1.053-5.59-2.781-7.516z"></path>
</symbol>
<symbol id="icon-graduation-cap" viewBox="0 0 20 20">
<path d="M3.302 12.238c0.464 1.879 1.054 2.701 3.022 3.562 1.969 0.86 2.904 1.8 3.676 1.8s1.648-0.822 3.616-1.684c1.969-0.861 1.443-1.123 1.907-3.002l-5.523 2.686-6.698-3.362zM19.511 7.336l-8.325-4.662c-0.652-0.365-1.72-0.365-2.372 0l-8.326 4.662c-0.652 0.365-0.652 0.963 0 1.328l8.325 4.662c0.652 0.365 1.72 0.365 2.372 0l5.382-3.014-5.836-1.367c-0.225 0.055-0.472 0.086-0.731 0.086-1.052 0-1.904-0.506-1.904-1.131 0-0.627 0.853-1.133 1.904-1.133 0.816 0 1.51 0.307 1.78 0.734l6.182 2.029 1.549-0.867c0.651-0.364 0.651-0.962 0-1.327zM16.967 16.17c-0.065 0.385 1.283 1.018 1.411-0.107 0.579-5.072-0.416-6.531-0.416-6.531l-1.395 0.781c0-0.001 1.183 1.125 0.4 5.857z"></path>
</symbol>
<symbol id="icon-keyboard" viewBox="0 0 20 20">
<path d="M18.6 4h-17.2c-0.771 0-1.4 0.629-1.4 1.4v9.2c0 0.769 0.629 1.4 1.399 1.4h17.2c0.77 0 1.4-0.631 1.4-1.4v-9.2c0.001-0.771-0.63-1.4-1.399-1.4zM11 6h2v2h-2v-2zM14 9v2h-2v-2h2zM8 6h2v2h-2v-2zM11 9v2h-2v-2h2zM5 6h2v2h-2v-2zM8 9v2h-2v-2h2zM2 6h2v2h-2v-2zM5 9v2h-2v-2h2zM4 14h-2v-2h2v2zM15 14h-10v-2h10v2zM18 14h-2v-2h2v2zM15 11v-2h2v2h-2zM18 8h-4v-2h4v2z"></path>
</symbol>
<symbol id="icon-laptop" viewBox="0 0 20 20">
<path d="M19.754 15.631c-0.247-0.371-1.754-2.631-1.754-2.631v-9c0-1.102-0.9-2-2-2h-12c-1.101 0-2 0.898-2 2v9c0 0-1.507 2.26-1.754 2.631-0.246 0.369-0.246 0.582-0.246 0.869v0.5c0 0.5 0.5 1 0.999 1h18.002c0.499 0 0.999-0.5 0.999-1v-0.5c0-0.287 0-0.5-0.246-0.869zM7 16l0.6-1h4.8l0.6 1h-6zM16 12h-12v-8h12v8z"></path>
</symbol>
<symbol id="icon-lifebuoy" viewBox="0 0 20 20">
<path d="M16.788 3.212c-3.749-3.749-9.827-3.749-13.575 0-3.75 3.75-3.75 9.828-0.002 13.576 3.75 3.75 9.828 3.75 13.578 0 3.748-3.749 3.748-9.827-0.001-13.576zM6.748 13.252c-1.797-1.797-1.797-4.709 0-6.505 1.795-1.796 4.709-1.796 6.506 0s1.795 4.709 0 6.505c-1.797 1.797-4.709 1.797-6.506 0zM15.347 12.879c0.968-1.799 0.969-3.959 0-5.759l1.783-0.96c1.289 2.391 1.289 5.29 0.002 7.678l-1.785-0.959zM13.839 2.869l-0.961 1.784c-1.799-0.967-3.959-0.967-5.756 0l-0.961-1.783c2.39-1.288 5.287-1.288 7.678-0.001zM2.87 6.16l1.784 0.961c-0.968 1.798-0.968 3.957-0.001 5.756l-1.784 0.961c-1.288-2.389-1.287-5.287 0.001-7.678zM6.159 17.129l0.961-1.783c1.799 0.969 3.96 0.969 5.759 0l0.961 1.785c-2.392 1.287-5.29 1.287-7.681-0.002z"></path>
</symbol>
<symbol id="icon-medal" viewBox="0 0 20 20">
<path d="M10 10c0.528 0 1.026 0.104 1.504 0.256l-6.077-9.115c-0.059-0.088-0.157-0.141-0.263-0.141h-3.556c-0.117 0-0.188 0.131-0.122 0.229l6.231 9.347c0.687-0.356 1.456-0.576 2.283-0.576zM18.392 1h-3.556c-0.106 0-0.204 0.053-0.263 0.141l-3.823 5.734 2 3 5.764-8.646c0.065-0.098-0.005-0.229-0.122-0.229zM10 11c-2.209 0-4 1.791-4 4s1.791 4 4 4 4-1.791 4-4c0-2.209-1.791-4-4-4zM12.112 15.117c0.062 0.064 0.052 0.158-0.022 0.208s-0.095 0.153-0.049 0.229c0.047 0.076 0.018 0.165-0.065 0.199s-0.125 0.13-0.095 0.214-0.017 0.165-0.104 0.181-0.149 0.101-0.137 0.189-0.051 0.158-0.14 0.155c-0.089-0.003-0.167 0.068-0.174 0.156s-0.083 0.144-0.169 0.123-0.178 0.031-0.203 0.117-0.111 0.124-0.191 0.085c-0.080-0.039-0.18-0.006-0.222 0.072s-0.134 0.098-0.205 0.043-0.175-0.044-0.232 0.024-0.151 0.068-0.209 0-0.162-0.079-0.232-0.024-0.162 0.035-0.205-0.043-0.142-0.111-0.222-0.072c-0.080 0.039-0.166 0-0.191-0.085s-0.116-0.138-0.203-0.117-0.163-0.034-0.169-0.123-0.084-0.159-0.173-0.157c-0.089 0.003-0.152-0.067-0.14-0.155s-0.050-0.173-0.137-0.189-0.135-0.097-0.104-0.181-0.013-0.18-0.095-0.214-0.111-0.123-0.065-0.199c0.047-0.076 0.025-0.179-0.049-0.229s-0.083-0.144-0.022-0.208c0.062-0.064 0.062-0.169 0-0.234s-0.052-0.158 0.022-0.208 0.095-0.153 0.049-0.229c-0.047-0.076-0.018-0.165 0.065-0.199s0.125-0.13 0.095-0.214 0.017-0.165 0.104-0.181 0.149-0.101 0.137-0.189 0.051-0.158 0.14-0.155c0.089 0.003 0.167-0.068 0.174-0.156s0.083-0.144 0.169-0.123 0.178-0.031 0.203-0.117 0.111-0.124 0.191-0.085c0.080 0.039 0.18 0.006 0.222-0.072s0.134-0.098 0.205-0.043 0.175 0.044 0.232-0.024 0.151-0.068 0.209 0 0.162 0.079 0.232 0.024 0.162-0.035 0.205 0.043 0.142 0.111 0.222 0.072c0.080-0.039 0.166 0 0.191 0.085s0.116 0.138 0.203 0.117 0.163 0.034 0.169 0.123 0.085 0.159 0.174 0.156c0.089-0.003 0.152 0.067 0.14 0.155s0.050 0.173 0.137 0.189 0.135 0.097 0.104 0.181 0.013 0.18 0.095 0.214 0.111 0.123 0.065 0.199c-0.047 0.076-0.025 0.179 0.049 0.229s0.083 0.144 0.022 0.208-0.063 0.171-0.001 0.235z"></path>
</symbol>
<symbol id="icon-price-ribbon" viewBox="0 0 20 20">
<path d="M12.825 10.653c0.118-0.258 0.445-0.497 0.727-0.529s0.539-0.29 0.571-0.572c0.034-0.28 0.272-0.608 0.529-0.727s0.423-0.443 0.369-0.72c-0.058-0.278 0.068-0.663 0.276-0.854 0.209-0.194 0.266-0.553 0.127-0.801-0.139-0.246-0.139-0.651 0-0.897 0.139-0.249 0.082-0.608-0.127-0.801s-0.333-0.577-0.276-0.854c0.054-0.278-0.111-0.603-0.369-0.722-0.256-0.119-0.495-0.445-0.529-0.727-0.033-0.28-0.29-0.538-0.571-0.572s-0.609-0.272-0.727-0.528c-0.12-0.258-0.444-0.423-0.722-0.366-0.278 0.055-0.662-0.070-0.854-0.278-0.193-0.21-0.553-0.266-0.8-0.127s-0.652 0.139-0.898 0c-0.247-0.141-0.606-0.085-0.801 0.125-0.191 0.208-0.575 0.333-0.854 0.278-0.277-0.056-0.602 0.109-0.72 0.367-0.119 0.256-0.446 0.495-0.728 0.527-0.282 0.035-0.539 0.292-0.572 0.573-0.034 0.281-0.271 0.608-0.529 0.726-0.256 0.119-0.422 0.444-0.366 0.722s-0.070 0.662-0.278 0.854-0.266 0.552-0.127 0.801c0.139 0.246 0.139 0.651 0 0.897-0.139 0.248-0.082 0.607 0.127 0.802 0.209 0.19 0.333 0.575 0.278 0.854-0.056 0.277 0.11 0.602 0.366 0.72 0.258 0.119 0.495 0.447 0.528 0.727 0.034 0.282 0.29 0.54 0.572 0.572s0.609 0.272 0.728 0.529c0.118 0.256 0.443 0.421 0.72 0.366 0.278-0.055 0.663 0.069 0.854 0.278 0.194 0.208 0.553 0.266 0.801 0.127 0.246-0.139 0.651-0.139 0.898 0s0.607 0.081 0.8-0.127c0.193-0.21 0.576-0.333 0.854-0.278s0.604-0.109 0.723-0.365zM10 9.399c-1.878 0-3.4-1.523-3.4-3.399 0-1.878 1.522-3.401 3.4-3.401s3.4 1.523 3.4 3.401c0 1.876-1.523 3.399-3.4 3.399zM5.975 11.409l-1.243 7.049 3.128-0.464 2.781 1.506 1.238-7.021c-0.597 0.173-1.227 0.271-1.88 0.271-1.509 0-2.899-0.502-4.024-1.341zM13.961 11.457c-0.311 0.226-0.642 0.426-0.99 0.597l-0.748 4.236 3.369-1.828-1.631-3.005z"></path>
</symbol>
<symbol id="icon-shareable" viewBox="0 0 20 20">
<path d="M6.8 10c0 1.768 1.433 3.201 3.2 3.201 1.768 0 3.199-1.433 3.199-3.201s-1.431-3.2-3.199-3.2-3.2 1.433-3.2 3.2zM4.529 8.8c0.549-2.516 2.789-4.4 5.471-4.4 1.546 0 2.945 0.627 3.959 1.64 0.469 0.469 1.229 0.469 1.697 0 0.469-0.469 0.469-1.229 0-1.697-1.447-1.447-3.447-2.343-5.656-2.343-3.582 0-6.614 2.354-7.633 5.601h-2.367v2.399h3.199c0.999 0 1.245-0.813 1.33-1.2zM16.8 10c-0.999 0-1.245 0.814-1.329 1.199-0.549 2.516-2.789 4.4-5.471 4.4-1.547 0-2.946-0.627-3.959-1.641-0.469-0.469-1.229-0.469-1.698 0s-0.468 1.229 0 1.697c1.448 1.449 3.448 2.345 5.657 2.345 3.582 0 6.613-2.356 7.633-5.6h2.367v-2.4h-3.2z"></path>
</symbol>
<symbol id="icon-sports-club" viewBox="0 0 20 20">
<path d="M6 13.5l4 2.5 4-2.5v-8.5h-8v8.5zM4.5 10c0-1.105-0.896-2-2-2s-2 0.895-2 2c0 1.105 0.896 2 2 2s2-0.895 2-2zM17.5 8c-1.104 0-2 0.895-2 2s0.896 2 2 2 2-0.895 2-2c0-1.105-0.896-2-2-2zM4.485 6.199c1.255-1.815 3.317-2.899 5.515-2.899 2.158 0 4.198 1.056 5.456 2.823 0.449 0.629 1.323 0.776 1.952 0.329 0.63-0.448 0.777-1.323 0.329-1.953-1.782-2.504-4.675-3.999-7.737-3.999-3.117 0-6.040 1.535-7.817 4.107-0.439 0.636-0.28 1.508 0.355 1.948 0.637 0.438 1.508 0.279 1.947-0.356zM15.456 13.877c-1.258 1.768-3.298 2.823-5.456 2.823-2.198 0-4.26-1.084-5.515-2.899-0.439-0.636-1.311-0.794-1.947-0.356-0.636 0.44-0.795 1.312-0.355 1.948 1.777 2.572 4.7 4.107 7.817 4.107 3.062 0 5.955-1.495 7.737-3.999 0.448-0.63 0.301-1.504-0.329-1.953-0.629-0.447-1.503-0.3-1.952 0.329z"></path>
</symbol>
<symbol id="icon-time-slot" viewBox="0 0 20 20">
<path d="M10 0.4c-5.302 0-9.6 4.298-9.6 9.6s4.298 9.6 9.6 9.6c5.301 0 9.6-4.298 9.6-9.601 0-5.301-4.299-9.599-9.6-9.599zM10 17.599c-4.197 0-7.6-3.402-7.6-7.6 0-4.197 3.402-7.6 7.6-7.6v0 7.601l6.792-3.396c0.513 1.023 0.808 2.173 0.808 3.396 0 4.197-3.403 7.599-7.6 7.599z"></path>
</symbol>
<symbol id="icon-trophy" viewBox="0 0 20 20">
<path d="M11.18 14.356c0-1.451 1.1-2.254 2.894-3.442 2.194-1.456 4.926-3.265 4.926-7.56 0-0.387-0.317-0.699-0.709-0.699h-3.43c-0.484-0.896-1.929-1.855-4.861-1.855-2.934 0-4.377 0.959-4.862 1.855h-3.431c-0.391 0-0.707 0.313-0.707 0.699 0 4.295 2.73 6.104 4.926 7.559 1.794 1.188 2.894 1.991 2.894 3.442v1.311c-1.884 0.209-3.269 0.906-3.269 1.736 0 0.994 1.992 1.799 4.449 1.799s4.449-0.805 4.449-1.799c0-0.83-1.385-1.527-3.269-1.736v-1.31zM13.957 9.3c0.566-1.199 1.016-2.826 1.088-5.246h2.51c-0.24 2.701-1.862 4.064-3.598 5.246zM10 2.026c2.732-0.002 3.799 1.115 3.798 1.529 0 0.418-1.066 1.533-3.798 1.535-2.732-0.001-3.799-1.116-3.799-1.534-0.001-0.414 1.067-1.532 3.799-1.53zM2.445 4.054h2.509c0.073 2.42 0.521 4.047 1.089 5.246-1.736-1.182-3.359-2.545-3.598-5.246z"></path>
</symbol>
<symbol id="icon-slideshare" viewBox="0 0 20 20">
<path d="M13 7.080c1.381 0 2.5-1.119 2.5-2.5s-1.119-2.5-2.5-2.5-2.5 1.119-2.5 2.5 1.12 2.5 2.5 2.5zM18.845 5.943c-3.58 2.555-5.229 2.108-6.845 2.057-1.118-0.057-1.5 0.298-1.5 1.080l0.001 6c0 5 8.421 3.43 5.165-4.949 1.671-0.959 3.076-2.434 3.876-3.412 0.411-0.608-0.028-1.245-0.697-0.776zM7 2.080c-1.381 0-2.5 1.119-2.5 2.5s1.119 2.5 2.5 2.5 2.5-1.119 2.5-2.5-1.12-2.5-2.5-2.5zM8 8c-1.616 0.051-3.265 0.498-6.845-2.057-0.669-0.469-1.108 0.168-0.697 0.775 0.8 0.979 2.205 2.453 3.876 3.412-3.256 8.379 5.165 9.949 5.165 4.949l0.001-6c0-0.781-0.382-1.136-1.5-1.079z"></path>
</symbol>
<symbol id="icon-facebook" viewBox="0 0 20 20">
<path d="M17 1h-14c-1.1 0-2 0.9-2 2v14c0 1.101 0.9 2 2 2h7v-7h-2v-2.475h2v-2.050c0-2.164 1.212-3.684 3.766-3.684l1.803 0.002v2.605h-1.197c-0.994 0-1.372 0.746-1.372 1.438v1.69h2.568l-0.568 2.474h-2v7h4c1.1 0 2-0.899 2-2v-14c0-1.1-0.9-2-2-2z"></path>
</symbol>
<symbol id="icon-linkedin" viewBox="0 0 20 20">
<path d="M5 3c0 1.062-0.71 1.976-2.001 1.976-1.215 0-1.999-0.862-1.999-1.924 0-1.090 0.76-2.052 2-2.052s1.976 0.91 2 2zM1 19v-13h4v13h-4z"></path>
<path d="M7 10.444c0-1.545-0.051-2.836-0.102-3.951h3.594l0.178 1.723h0.076c0.506-0.811 1.746-2 3.822-2 2.532 0 4.432 1.695 4.432 5.342v7.442h-4v-6.861c0-1.594-0.607-2.81-2-2.81-1.062 0-1.594 0.86-1.873 1.569-0.102 0.254-0.127 0.608-0.127 0.963v7.139h-4v-8.556z"></path>
</symbol>
<symbol id="icon-briefcase" viewBox="0 0 20 20">
<path d="M9 10h2v2h9c0 0-0.149-4.459-0.2-5.854-0.050-1.326-0.525-2.146-2-2.146h-3.208c-0.497-0.938-1.032-1.945-1.197-2.256-0.331-0.623-0.444-0.744-1.179-0.744h-4.433c-0.735 0-0.847 0.121-1.179 0.744-0.165 0.311-0.7 1.318-1.196 2.256h-3.209c-1.476 0-1.945 0.82-2 2.146s-0.199 5.854-0.199 5.854h9v-2zM7.649 2.916c0.23-0.432 0.308-0.516 0.817-0.516h3.067c0.509 0 0.588 0.084 0.816 0.516 0.086 0.16 0.318 0.6 0.575 1.084h-5.85c0.257-0.484 0.489-0.924 0.575-1.084zM11 15h-2v-2h-8.5c0 0 0.124 1.797 0.199 3.322 0.031 0.633 0.218 1.678 1.8 1.678h15.001c1.582 0 1.765-1.047 1.8-1.678 0.087-1.568 0.2-3.322 0.2-3.322h-8.5v2z"></path>
</symbol>
<symbol id="icon-calendar" viewBox="0 0 20 20">
<path d="M17 3h-1v2h-3v-2h-6v2h-3v-2h-1c-1.101 0-2 0.9-2 2v12c0 1.1 0.899 2 2 2h14c1.1 0 2-0.9 2-2v-12c0-1.1-0.9-2-2-2zM17 17h-14v-8h14v8zM6.5 1h-2v3.5h2v-3.5zM15.5 1h-2v3.5h2v-3.5z"></path>
</symbol>
<symbol id="icon-code" viewBox="0 0 20 20">
<path d="M5.719 14.75c-0.236 0-0.474-0.083-0.664-0.252l-5.060-4.498 5.341-4.748c0.412-0.365 1.044-0.33 1.411 0.083s0.33 1.045-0.083 1.412l-3.659 3.253 3.378 3.002c0.413 0.367 0.45 0.999 0.083 1.412-0.197 0.223-0.472 0.336-0.747 0.336zM14.664 14.748l5.341-4.748-5.060-4.498c-0.413-0.367-1.045-0.33-1.411 0.083s-0.33 1.045 0.083 1.412l3.378 3.003-3.659 3.252c-0.413 0.367-0.45 0.999-0.083 1.412 0.197 0.223 0.472 0.336 0.747 0.336 0.236 0 0.474-0.083 0.664-0.252zM9.986 16.165l2-12c0.091-0.545-0.277-1.060-0.822-1.151-0.547-0.092-1.061 0.277-1.15 0.822l-2 12c-0.091 0.545 0.277 1.060 0.822 1.151 0.056 0.009 0.11 0.013 0.165 0.013 0.48 0 0.904-0.347 0.985-0.835z"></path>
</symbol>
<symbol id="icon-compass" viewBox="0 0 20 20">
<path d="M5.454 14.548c0 0 4.568-0.627 6.518-2.576s2.576-6.518 2.576-6.518-4.569 0.627-6.518 2.576-2.576 6.518-2.576 6.518zM9.017 9.015c0.818-0.818 2.385-1.4 3.729-1.762-0.361 1.342-0.945 2.92-1.76 3.732-0.543 0.545-1.426 0.545-1.969 0-0.545-0.543-0.545-1.425 0-1.97zM10.001 0.4c-5.303 0-9.601 4.298-9.601 9.6 0 5.303 4.298 9.601 9.601 9.601 5.301 0 9.6-4.298 9.6-9.601s-4.299-9.6-9.6-9.6zM10 17.6c-4.197 0-7.6-3.402-7.6-7.6 0-4.197 3.402-7.6 7.6-7.6 4.197 0 7.601 3.402 7.601 7.6 0 4.197-3.404 7.6-7.601 7.6z"></path>
</symbol>
<symbol id="icon-export" viewBox="0 0 20 20">
<path d="M15 15h-13v-9h2.595c0 0 0.689-0.896 2.17-2h-5.765c-0.553 0-1 0.449-1 1v11c0 0.553 0.447 1 1 1h15c0.553 0 1-0.447 1-1v-3.746l-2 1.645v1.101zM13.361 8.050v3.551l6.639-5.201-6.639-4.999v3.131c-8.061 0-8.061 7.968-8.061 7.968 2.282-3.748 3.686-4.45 8.061-4.45z"></path>
</symbol>
<symbol id="icon-feather" viewBox="0 0 20 20">
<path d="M4.254 19.567c0.307-0.982 0.77-2.364 1.391-4.362 2.707-0.429 3.827 0.341 5.546-2.729-1.395 0.427-3.077-0.792-2.987-1.321s3.913 0.381 6.416-3.173c-3.155 0.696-4.164-0.836-3.757-1.067 0.939-0.534 3.726-0.222 5.212-1.669 0.766-0.745 1.125-2.556 0.813-3.202-0.374-0.781-2.656-1.946-3.914-1.836s-3.231 4.79-3.817 4.754c-0.584-0.037-0.703-2.098 0.319-4.013-1.077 0.477-3.051 1.959-3.67 3.226-1.153 2.357 0.108 7.766-0.296 7.958s-1.766-2.481-2.172-3.694c-0.555 1.859-0.568 3.721 1.053 6.194-0.611 1.623-0.945 3.491-0.996 4.441-0.024 0.759 0.724 0.922 0.859 0.493z"></path>
</symbol>
<symbol id="icon-hair-cross" viewBox="0 0 20 20">
<path d="M10 0.4c-5.303 0-9.601 4.298-9.601 9.6 0 5.303 4.298 9.601 9.601 9.601 5.301 0 9.6-4.298 9.6-9.601s-4.299-9.6-9.6-9.6zM11 17.525v-4.525h-2v4.525c-3.396-0.446-6.080-3.129-6.527-6.525h4.527v-2h-4.527c0.447-3.396 3.131-6.079 6.527-6.525v4.525h2v-4.525c3.394 0.447 6.078 3.13 6.525 6.525h-4.525v2h4.525c-0.447 3.394-3.131 6.078-6.525 6.525z"></path>
</symbol>
<symbol id="icon-location-pin" viewBox="0 0 20 20">
<path d="M10 2.009c-2.762 0-5 2.229-5 4.99 0 4.774 5 11 5 11s5-6.227 5-11c0-2.76-2.238-4.99-5-4.99zM10 9.76c-1.492 0-2.7-1.209-2.7-2.7s1.208-2.7 2.7-2.7c1.49 0 2.699 1.209 2.699 2.7s-1.209 2.7-2.699 2.7z"></path>
</symbol>
<symbol id="icon-shield" viewBox="0 0 20 20">
<path d="M17.604 3.332c-4.614 0.668-5.529-0.499-7.604-2.332-2.075 1.833-2.99 3-7.604 2.332-2.459 12.248 7.604 15.668 7.604 15.668s10.063-3.42 7.604-15.668zM12.473 13.309l-2.473-1.3-2.472 1.3 0.472-2.753-2-1.95 2.764-0.401 1.236-2.505 1.236 2.505 2.764 0.401-2 1.949 0.473 2.754z"></path>
</symbol>
<symbol id="icon-sports-club" viewBox="0 0 20 20">
<path d="M6 13.5l4 2.5 4-2.5v-8.5h-8v8.5zM4.5 10c0-1.105-0.896-2-2-2s-2 0.895-2 2c0 1.105 0.896 2 2 2s2-0.895 2-2zM17.5 8c-1.104 0-2 0.895-2 2s0.896 2 2 2 2-0.895 2-2c0-1.105-0.896-2-2-2zM4.485 6.199c1.255-1.815 3.317-2.899 5.515-2.899 2.158 0 4.198 1.056 5.456 2.823 0.449 0.629 1.323 0.776 1.952 0.329 0.63-0.448 0.777-1.323 0.329-1.953-1.782-2.504-4.675-3.999-7.737-3.999-3.117 0-6.040 1.535-7.817 4.107-0.439 0.636-0.28 1.508 0.355 1.948 0.637 0.438 1.508 0.279 1.947-0.356zM15.456 13.877c-1.258 1.768-3.298 2.823-5.456 2.823-2.198 0-4.26-1.084-5.515-2.899-0.439-0.636-1.311-0.794-1.947-0.356-0.636 0.44-0.795 1.312-0.355 1.948 1.777 2.572 4.7 4.107 7.817 4.107 3.062 0 5.955-1.495 7.737-3.999 0.448-0.63 0.301-1.504-0.329-1.953-0.629-0.447-1.503-0.3-1.952 0.329z"></path>
</symbol>
<symbol id="icon-star" viewBox="0 0 20 20">
<path d="M10 1.3l2.388 6.722h6.412l-5.232 3.948 1.871 6.928-5.439-4.154-5.438 4.154 1.87-6.928-5.233-3.948h6.412l2.389-6.722z"></path>
</symbol>
<symbol id="icon-stopwatch" viewBox="0 0 20 20">
<path d="M7.376 6.745c-0.447 0.275 1.197 4.242 1.598 4.888 0.35 0.569 1.093 0.742 1.658 0.394 0.568-0.352 0.745-1.094 0.395-1.66-0.397-0.648-3.205-3.898-3.651-3.622zM7.041 2.402c0.928-0.323 1.922-0.502 2.959-0.502s2.031 0.179 2.959 0.502c0.329 0.114 0.765-0.115 0.572-0.611-0.141-0.36-0.277-0.712-0.332-0.855-0.131-0.339-0.6-0.619-0.804-0.665-0.772-0.174-1.572-0.271-2.395-0.271s-1.623 0.097-2.396 0.271c-0.204 0.046-0.672 0.326-0.803 0.665-0.055 0.143-0.192 0.495-0.332 0.855-0.193 0.496 0.243 0.726 0.572 0.611zM19.098 3.186c-0.192-0.23-0.396-0.455-0.613-0.672-0.216-0.217-0.441-0.42-0.67-0.613-0.153-0.129-0.603-0.234-0.888 0.051s-1.648 1.647-1.648 1.647c0.402 0.288 0.793 0.605 1.155 0.966s0.677 0.752 0.966 1.155c0 0 1.363-1.362 1.647-1.647 0.286-0.286 0.181-0.735 0.051-0.887zM10 2.9c-4.475 0-8.101 3.626-8.101 8.1s3.626 8.101 8.101 8.101c4.473 0 8.1-3.626 8.1-8.101 0-4.473-3.627-8.1-8.1-8.1zM10 17.101c-3.368 0-6.1-2.731-6.1-6.1s2.731-6.1 6.1-6.1c3.369 0 6.101 2.731 6.101 6.1s-2.732 6.1-6.101 6.1z"></path>
</symbol>
<symbol id="icon-ticket" viewBox="0 0 20 20">
<path d="M4.906 11.541l3.551 3.553 6.518-6.518-3.553-3.551-6.516 6.516zM19.104 6.664l-1.511-1.512c-0.289 0.156-0.618 0.246-0.969 0.246-1.118 0-2.024-0.906-2.024-2.023 0-0.352 0.089-0.682 0.246-0.969l-1.511-1.512c-0.394-0.393-1.038-0.393-1.432 0l-11.010 11.010c-0.393 0.392-0.393 1.037 0 1.432l1.512 1.51c0.289-0.156 0.618-0.246 0.97-0.246 1.117 0 2.023 0.906 2.023 2.025 0 0.35-0.089 0.68-0.246 0.969l1.512 1.51c0.394 0.394 1.037 0.394 1.432 0l11.008-11.008c0.394-0.395 0.394-1.039 0-1.432zM8.457 16.719l-5.176-5.178 8.142-8.141 5.176 5.176-8.142 8.143z"></path>
</symbol>
<symbol id="icon-tools" viewBox="0 0 20 20">
<path d="M3.135 6.89c0.933-0.725 1.707-0.225 2.74 0.971 0.116 0.135 0.272-0.023 0.361-0.1 0.088-0.078 1.451-1.305 1.518-1.361 0.066-0.059 0.146-0.169 0.041-0.292-0.107-0.123-0.494-0.625-0.743-0.951-1.808-2.365 4.946-3.969 3.909-3.994-0.528-0.014-2.646-0.039-2.963-0.004-1.283 0.135-2.894 1.334-3.705 1.893-1.061 0.726-1.457 1.152-1.522 1.211-0.3 0.262-0.048 0.867-0.592 1.344-0.575 0.503-0.934 0.122-1.267 0.414-0.165 0.146-0.627 0.492-0.759 0.607-0.133 0.117-0.157 0.314-0.021 0.471 0 0 1.264 1.396 1.37 1.52 0.105 0.122 0.391 0.228 0.567 0.071 0.177-0.156 0.632-0.553 0.708-0.623 0.078-0.066-0.050-0.861 0.358-1.177zM8.843 7.407c-0.12-0.139-0.269-0.143-0.397-0.029l-1.434 1.252c-0.113 0.1-0.129 0.283-0.027 0.4l8.294 9.439c0.194 0.223 0.53 0.246 0.751 0.053l0.97-0.813c0.222-0.195 0.245-0.533 0.052-0.758l-8.209-9.544zM19.902 3.39c-0.074-0.494-0.33-0.391-0.463-0.182-0.133 0.211-0.721 1.102-0.963 1.506-0.24 0.4-0.832 1.191-1.934 0.41-1.148-0.811-0.749-1.377-0.549-1.758 0.201-0.383 0.818-1.457 0.907-1.59 0.089-0.135-0.015-0.527-0.371-0.363s-2.523 1.025-2.823 2.26c-0.307 1.256 0.257 2.379-0.85 3.494l-1.343 1.4 1.349 1.566 1.654-1.57c0.394-0.396 1.236-0.781 1.998-0.607 1.633 0.369 2.524-0.244 3.061-1.258 0.482-0.906 0.402-2.814 0.327-3.308zM2.739 17.053c-0.208 0.209-0.208 0.549 0 0.758l0.951 0.93c0.208 0.209 0.538 0.121 0.746-0.088l4.907-4.824-1.503-1.714-5.101 4.938z"></path>
</symbol>
<symbol id="icon-facebook" viewBox="0 0 20 20">
<path d="M17 1h-14c-1.1 0-2 0.9-2 2v14c0 1.101 0.9 2 2 2h7v-7h-2v-2.475h2v-2.050c0-2.164 1.212-3.684 3.766-3.684l1.803 0.002v2.605h-1.197c-0.994 0-1.372 0.746-1.372 1.438v1.69h2.568l-0.568 2.474h-2v7h4c1.1 0 2-0.899 2-2v-14c0-1.1-0.9-2-2-2z"></path>
</symbol>
<symbol id="icon-linkedin" viewBox="0 0 20 20">
<path d="M5 3c0 1.062-0.71 1.976-2.001 1.976-1.215 0-1.999-0.862-1.999-1.924 0-1.090 0.76-2.052 2-2.052s1.976 0.91 2 2zM1 19v-13h4v13h-4z"></path>
<path d="M7 10.444c0-1.545-0.051-2.836-0.102-3.951h3.594l0.178 1.723h0.076c0.506-0.811 1.746-2 3.822-2 2.532 0 4.432 1.695 4.432 5.342v7.442h-4v-6.861c0-1.594-0.607-2.81-2-2.81-1.062 0-1.594 0.86-1.873 1.569-0.102 0.254-0.127 0.608-0.127 0.963v7.139h-4v-8.556z"></path>
</symbol>
<symbol id="icon-twitter" viewBox="0 0 20 20">
<path d="M17.316 6.246c0.008 0.162 0.011 0.326 0.011 0.488 0 4.99-3.797 10.742-10.74 10.742-2.133 0-4.116-0.625-5.787-1.697 0.296 0.035 0.596 0.053 0.9 0.053 1.77 0 3.397-0.604 4.688-1.615-1.651-0.031-3.046-1.121-3.526-2.621 0.23 0.043 0.467 0.066 0.71 0.066 0.345 0 0.679-0.045 0.995-0.131-1.727-0.348-3.028-1.873-3.028-3.703 0-0.016 0-0.031 0-0.047 0.509 0.283 1.092 0.453 1.71 0.473-1.013-0.678-1.68-1.832-1.68-3.143 0-0.691 0.186-1.34 0.512-1.898 1.861 2.285 4.644 3.787 7.781 3.945-0.064-0.277-0.097-0.564-0.097-0.861 0-2.084 1.689-3.773 3.774-3.773 1.086 0 2.067 0.457 2.756 1.191 0.859-0.17 1.667-0.484 2.397-0.916-0.282 0.881-0.881 1.621-1.66 2.088 0.764-0.092 1.49-0.293 2.168-0.594-0.506 0.758-1.146 1.422-1.884 1.953z"></path>
</symbol>
</defs>
</svg>
